<svg width="602" height="278" viewBox="0 0 602 278" style="fill:none;stroke:none;fill-rule:evenodd;clip-rule:evenodd;stroke-linecap:round;stroke-linejoin:round;stroke-miterlimit:1.5;" version="1.1" xmlns="http://www.w3.org/2000/svg" xmlns:xlink="http://www.w3.org/1999/xlink"><g id="blend" style="mix-blend-mode:multiply"><g id="g-root-3.cu_sy_1q8txv4yztt6z-fill" data-item-order="-100796" data-item-id="3.cu_sy_1q8txv4yztt6z" data-item-class="ScenePart Indexed Fill Stroke" data-item-index="3" data-renderer-id="0" transform="translate(387, 171)"><g id="3.cu_sy_1q8txv4yztt6z-fill" stroke="none" fill="#ffd0ce"><g xmlns="http://www.w3.org/2000/svg"><path d="M 208 10C 211.314 10 214 12.686 214 16C 214 19.314 211.314 22 208 22L 202 22L 202 106L 10 106L 10 10L 208 10Z"></path></g></g></g><g id="g-root-2.cu_sy_3cw4wyztsle-fill" data-item-order="-100794" data-item-id="2.cu_sy_3cw4wyztsle" data-item-class="ScenePart Indexed Fill Stroke" data-item-index="2" data-renderer-id="0" transform="translate(-9, 135)"><g id="2.cu_sy_3cw4wyztsle-fill" stroke="none" fill="#fde6cf"><g xmlns="http://www.w3.org/2000/svg"><path d="M 16 10C 12.686 10 10 12.686 10 16C 10 19.314 12.686 22 16 22L 22 22L 22 142L 214 142L 214 10L 16 10Z"></path></g></g></g><g id="g-root-1.cu_sy_3cw4wyztsld-fill" data-item-order="-100792" data-item-id="1.cu_sy_3cw4wyztsld" data-item-class="ScenePart Indexed Indexed_1 Fill Stroke" data-item-index="1" data-renderer-id="0" transform="translate(183, 99)"><g id="1.cu_sy_3cw4wyztsld-fill" stroke="none" fill="#fff9ce"><g xmlns="http://www.w3.org/2000/svg"><path d="M 226 16C 226 12.686 223.314 10 220 10L 16 10C 12.686 10 10 12.686 10 16C 10 19.314 12.686 22 16 22L 22 22L 22 178L 214 178L 214 22L 220 22C 223.314 22 226 19.314 226 16Z"></path></g></g></g><g id="g-root-tx_keycompo_zmje7kyztt73-fill" data-item-order="0" data-item-id="tx_keycompo_zmje7kyztt73" data-item-class="Label Stroke SceneTarget SceneTitle ColorStrokeBlack" data-item-index="none" data-renderer-id="0" transform="translate(75, -9)"></g><g id="g-root-bact_v9ucogz03n5z-fill" data-item-order="0" data-item-id="bact_v9ucogz03n5z" data-item-class="Icon Stroke SceneTarget Indexed Indexed_1" data-item-index="1" data-renderer-id="0" transform="translate(267, 39)"></g><g id="g-root-stan_18kodyoz03oqu-fill" data-item-order="0" data-item-id="stan_18kodyoz03oqu" data-item-class="Icon Stroke SceneTarget Indexed" data-item-index="2" data-renderer-id="0" transform="translate(75, 75)"></g><g id="g-root-tx_lactobac_18i6eggyztsee-fill" data-item-order="0" data-item-id="tx_lactobac_18i6eggyztsee" data-item-class="Label Stroke SceneTarget Indexed Indexed_1 InsideFill" data-item-index="1" data-renderer-id="0" transform="translate(225, 111)"></g><g id="g-root-stom_1lw4wc0z03n5x-fill" data-item-order="0" data-item-id="stom_1lw4wc0z03n5x" data-item-class="Icon Stroke SceneTarget Indexed" data-item-index="3" data-renderer-id="0" transform="translate(459, 111)"></g><g id="g-root-tx_bifidoba_1cxdfhsyzturx-fill" data-item-order="0" data-item-id="tx_bifidoba_1cxdfhsyzturx" data-item-class="Label Stroke SceneTarget Indexed InsideFill" data-item-index="2" data-renderer-id="0" transform="translate(21, 147)"></g><g id="g-root-tx_digestiv_1lt0fqoyzttz8-fill" data-item-order="0" data-item-id="tx_digestiv_1lt0fqoyzttz8" data-item-class="Label Stroke SceneTarget Indexed InsideFill" data-item-index="3" data-renderer-id="0" transform="translate(435, 183)"></g><g id="g-root-3.cu_sy_1q8txv4yztt6z-stroke" data-item-order="-100796" data-item-id="3.cu_sy_1q8txv4yztt6z" data-item-class="ScenePart Indexed Fill Stroke" data-item-index="3" data-renderer-id="0" transform="translate(387, 171)"><g id="3.cu_sy_1q8txv4yztt6z-stroke" fill="none" stroke-linecap="round" stroke-linejoin="round" stroke-miterlimit="1.5" stroke="#ffffff" stroke-width="2"><g xmlns="http://www.w3.org/2000/svg"><path d="M 208 10C 211.314 10 214 12.686 214 16C 214 19.314 211.314 22 208 22L 202 22L 202 106L 10 106L 10 10L 208 10Z"></path></g></g></g><g id="g-root-2.cu_sy_3cw4wyztsle-stroke" data-item-order="-100794" data-item-id="2.cu_sy_3cw4wyztsle" data-item-class="ScenePart Indexed Fill Stroke" data-item-index="2" data-renderer-id="0" transform="translate(-9, 135)"><g id="2.cu_sy_3cw4wyztsle-stroke" fill="none" stroke-linecap="round" stroke-linejoin="round" stroke-miterlimit="1.5" stroke="#ffffff" stroke-width="2"><g xmlns="http://www.w3.org/2000/svg"><path d="M 16 10C 12.686 10 10 12.686 10 16C 10 19.314 12.686 22 16 22L 22 22L 22 142L 214 142L 214 10L 16 10Z"></path></g></g></g><g id="g-root-1.cu_sy_3cw4wyztsld-stroke" data-item-order="-100792" data-item-id="1.cu_sy_3cw4wyztsld" data-item-class="ScenePart Indexed Indexed_1 Fill Stroke" data-item-index="1" data-renderer-id="0" transform="translate(183, 99)"><g id="1.cu_sy_3cw4wyztsld-stroke" fill="none" stroke-linecap="round" stroke-linejoin="round" stroke-miterlimit="1.5" stroke="#ffffff" stroke-width="2"><g xmlns="http://www.w3.org/2000/svg"><path d="M 226 16C 226 12.686 223.314 10 220 10L 16 10C 12.686 10 10 12.686 10 16C 10 19.314 12.686 22 16 22L 22 22L 22 178L 214 178L 214 22L 220 22C 223.314 22 226 19.314 226 16Z"></path></g></g></g><g id="g-root-tx_keycompo_zmje7kyztt73-stroke" data-item-order="0" data-item-id="tx_keycompo_zmje7kyztt73" data-item-class="Label Stroke SceneTarget SceneTitle ColorStrokeBlack" data-item-index="none" data-renderer-id="0" transform="translate(75, -9)"><g id="tx_keycompo_zmje7kyztt73-stroke" fill="none" stroke-linecap="round" stroke-linejoin="round" stroke-miterlimit="1.5" stroke="#484848" stroke-width="2"><g xmlns="http://www.w3.org/2000/svg"><path d="M 18.923 15.047C 19.392 17.234 19.172 18.704 18.923 21.398C 18.673 24.105 18.782 27.014 19.021 28.146M 27.201 15.047C 24.179 16.726 20.148 19.887 20.342 22.281C 20.587 25.324 25.714 27.732 28.233 28.146M 33.119 24.307C 34.447 24.583 37.492 24.463 38.561 23.011C 39.898 21.196 38.608 18.817 35.587 19.508C 32.234 20.276 30.969 24.39 32.234 26.534C 33.257 28.267 35.98 29.038 39.401 26.534M 42.973 19.325C 42.82 20.303 42.686 22.518 42.973 24.354C 43.333 26.649 44.869 27.826 46.466 26.609C 48.062 25.391 48.641 21.26 48.741 19.325C 48.481 23.136 48.88 25.232 49.08 26.708C 49.279 28.185 49.339 31.019 48.361 32.256C 47.384 33.493 44.769 33.613 43.412 32.436M 67.903 17.743C 68.062 17.143 68.109 16.067 66.922 15.498C 65.551 14.841 59.922 15.497 59.233 22.747C 58.595 29.462 66.763 29.573 68.458 26.304M 75.655 19.468C 74.809 19.693 72.435 20.951 72.593 24.041C 72.75 27.13 74.894 28.136 76.817 28.136C 78.813 28.136 81.371 26.697 81.165 23.333C 80.959 19.968 78.829 19.251 77.439 19.315C 75.793 19.389 74.69 20.554 74.237 21.311M 99.246 28.136C 98.748 27.708 98.458 25.757 98.458 23.936C 98.458 22.314 98.767 19.203 97.162 19.093C 95.165 18.955 92.986 26.052 92.242 28.136C 90.514 26.448 91.158 19.121 88.963 19.362C 87.244 19.55 84.827 25.23 85.064 28.136C 84.811 27.22 84.821 25.117 85.064 23.634C 85.317 22.09 84.979 20.82 84.811 20.202M 103.131 20.179C 103.033 21.381 103.621 23.008 103.798 27.437C 103.92 30.484 103.557 33.29 103.557 33.29M 104.387 27.311C 105.214 27.856 107.256 28.578 109.173 27.728C 111.57 26.666 111.086 23.21 110.154 21.899C 109.077 20.385 107.113 18.676 103.621 19.635M 117.885 19.468C 117.039 19.693 114.665 20.951 114.823 24.041C 114.98 27.13 117.124 28.136 119.047 28.136C 121.043 28.136 123.601 26.697 123.395 23.333C 123.189 19.968 121.059 19.251 119.669 19.315C 118.023 19.389 116.92 20.554 116.467 21.311M 127.418 19.359C 127.449 20.082 127.299 21.88 127.037 23.286C 126.711 25.045 127.019 27.333 127.563 28.136C 127.563 26.924 130.34 19.359 132.699 19.359C 134.985 19.359 132.844 26.343 134.985 28.136M 139.739 24.307C 141.067 24.583 144.112 24.463 145.181 23.011C 146.518 21.196 145.228 18.817 142.207 19.508C 138.854 20.276 137.589 24.39 138.854 26.534C 139.877 28.267 142.6 29.038 146.021 26.534M 150.158 19.359C 150.189 20.082 150.039 21.88 149.777 23.286C 149.451 25.045 149.759 27.333 150.303 28.136C 150.303 26.924 153.08 19.359 155.439 19.359C 157.725 19.359 155.584 26.343 157.725 28.136M 161.176 14.955C 161.405 16.514 161.16 17.296 160.721 20.909C 160.281 24.523 160.764 26.546 161.716 27.488C 162.669 28.43 164.282 28.217 164.819 27.657M 164.569 19.3C 163.91 19.294 162.281 19.566 161.033 20.259M 174.006 19.411C 171.519 18.954 167.765 20.59 168.401 22.121C 169.313 24.313 175.699 23.498 174.889 26.083C 174.424 27.569 172.646 28.101 170.972 28.131C 169.809 28.152 168.982 28.131 168.113 27.615M 187.915 19.468C 187.069 19.693 184.695 20.951 184.853 24.041C 185.01 27.13 187.154 28.136 189.077 28.136C 191.073 28.136 193.631 26.697 193.425 23.333C 193.219 19.968 191.089 19.251 189.699 19.315C 188.053 19.389 186.95 20.554 186.497 21.311M 197.564 28.129C 197.564 25.986 197.429 25.016 197.275 22.823C 197.048 19.617 196.893 14.643 201.121 13.962M 200.493 19.362C 199.827 19.33 198.404 19.425 197.664 19.853M 211.572 28.131C 211.59 27.192 211.444 24.755 210.852 22.855C 210.051 20.289 209.523 17.585 211.572 15.972C 213.789 14.228 219.367 15.081 219.11 18.907C 218.879 22.332 214.971 23.839 211.769 22.855M 222.665 19.413C 222.947 20.567 223.538 24.098 223.446 28.136C 223.446 23.378 225.039 19.844 227.485 19.341M 233.335 19.468C 232.489 19.693 230.115 20.951 230.273 24.041C 230.43 27.13 232.574 28.136 234.497 28.136C 236.493 28.136 239.051 26.697 238.845 23.333C 238.639 19.968 236.509 19.251 235.119 19.315C 233.473 19.389 232.37 20.554 231.917 21.311M 242.83 14.096C 243.16 16.981 241.812 19.2 243.116 26.572C 243.729 23.293 245.506 18.598 248.568 19.489C 251.433 20.323 250.55 25.002 248.924 26.387C 247.444 27.647 244.79 28.685 242.553 27.792M 254.596 14.847C 255.904 15.612 254.241 16.866 254.416 14.941M 254.771 19.301C 254.715 21.527 254.638 26.583 254.771 28.136M 262.235 19.468C 261.389 19.693 259.015 20.951 259.173 24.041C 259.331 27.13 261.474 28.136 263.397 28.136C 265.393 28.136 267.951 26.697 267.745 23.333C 267.539 19.968 265.409 19.251 264.019 19.315C 262.373 19.389 261.27 20.554 260.817 21.311M 271.176 14.955C 271.405 16.514 271.16 17.296 270.721 20.909C 270.281 24.523 270.764 26.546 271.716 27.488C 272.669 28.43 274.282 28.217 274.819 27.657M 274.569 19.3C 273.91 19.294 272.281 19.566 271.033 20.259M 278.556 14.847C 279.864 15.612 278.201 16.866 278.376 14.941M 278.731 19.301C 278.675 21.527 278.598 26.583 278.731 28.136M 290.037 19.672C 289.419 19.1 286.129 19.105 284.209 21.414C 281.886 24.207 283.337 27.988 286.929 28.121C 289.308 28.209 290.206 27.078 290.515 26.741M 300.282 16.311C 300.409 16.622 300.864 18.026 300.977 20.059M 300.833 28.152C 300.723 22.113 302.201 15.109 303.65 15.109C 305.099 15.109 305.626 27.25 307.403 28.016C 308.238 28.375 310.776 15.109 312.471 15.109C 314.002 15.109 312.661 24.379 314.794 28.152M 300.977 20.059C 301.091 22.092 300.822 25.473 300.822 27.524L 300.977 20.059ZM 319.026 19.475C 318.753 20.342 318.364 22.125 318.48 23.654C 318.626 25.558 319.972 28.639 323.192 28.066C 326.307 27.512 326.449 22.23 326.048 19.475M 330.346 14.008C 329.937 17.098 329.652 23.338 329.931 25.59C 330.29 28.491 331.629 28.35 332.226 27.864M 335.116 14.955C 335.345 16.514 335.1 17.296 334.661 20.909C 334.221 24.523 334.704 26.546 335.656 27.488C 336.609 28.43 338.222 28.217 338.759 27.657M 338.509 19.3C 337.85 19.294 336.221 19.566 334.973 20.259M 342.496 14.847C 343.804 15.612 342.141 16.866 342.316 14.941M 342.67 19.301C 342.615 21.527 342.538 26.583 342.67 28.136M 346.67 24.034C 348.139 23.897 349.987 23.494 351.463 23.733M 360.947 15.421C 359.641 15.416 356.217 15.546 353.348 16.047M 354.858 16.779C 354.119 18.077 352.606 21.413 353.222 24.625C 353.993 28.639 358.193 29.143 361.135 27.403M 353.348 22.717C 354.428 22.457 357.259 21.997 359.562 21.862M 365.438 19.359C 365.469 20.082 365.319 21.88 365.057 23.286C 364.731 25.045 365.039 27.333 365.583 28.136C 365.583 26.924 368.36 19.359 370.719 19.359C 373.005 19.359 370.864 26.343 373.005 28.136M 376.472 20.045C 378.108 19.506 381.638 18.693 382.778 20.305C 384.026 22.07 378.487 25.593 376.891 26.171C 376.314 26.381 376.006 27.607 377.152 27.99C 378.767 28.53 381.89 27.667 383.342 27.99M 386.883 19.325C 386.73 20.303 386.596 22.518 386.883 24.354C 387.243 26.649 388.779 27.826 390.376 26.609C 391.972 25.391 392.551 21.26 392.651 19.325C 392.391 23.136 392.79 25.232 392.99 26.708C 393.189 28.185 393.249 31.019 392.271 32.256C 391.294 33.493 388.679 33.613 387.322 32.436M 411.466 28.136C 410.968 27.708 410.677 25.757 410.677 23.936C 410.677 22.314 410.987 19.203 409.382 19.093C 407.385 18.955 405.206 26.052 404.462 28.136C 402.734 26.448 403.378 19.121 401.182 19.362C 399.464 19.55 397.047 25.23 397.284 28.136C 397.031 27.22 397.041 25.117 397.284 23.634C 397.537 22.09 397.199 20.82 397.031 20.202M 416.589 24.307C 417.917 24.583 420.962 24.463 422.031 23.011C 423.368 21.196 422.078 18.817 419.057 19.508C 415.704 20.276 414.439 24.39 415.704 26.534C 416.727 28.267 419.45 29.038 422.871 26.534M 432.366 19.411C 429.879 18.954 426.125 20.59 426.761 22.121C 427.673 24.313 434.059 23.498 433.249 26.083C 432.784 27.569 431.005 28.101 429.332 28.131C 428.169 28.152 427.342 28.131 426.473 27.615"></path></g></g></g><g id="g-root-bact_v9ucogz03n5z-stroke" data-item-order="0" data-item-id="bact_v9ucogz03n5z" data-item-class="Icon Stroke SceneTarget Indexed Indexed_1" data-item-index="1" data-renderer-id="0" transform="translate(267, 39)"><g id="bact_v9ucogz03n5z-stroke" fill="none" stroke-linecap="round" stroke-linejoin="round" stroke-miterlimit="1.5" stroke="#e3cd09" stroke-width="2"><g xmlns="http://www.w3.org/2000/svg"><path d="M 40.908 20C 41.588 20 42.222 20.346 42.59 20.918L 50.304 32.918C 50.728 33.577 50.728 34.423 50.304 35.082L 42.59 47.082C 42.222 47.654 41.588 48 40.908 48L 27.092 48C 26.412 48 25.778 47.654 25.41 47.082L 17.696 35.082C 17.272 34.423 17.272 33.577 17.696 32.918L 25.41 20.918C 25.778 20.346 26.412 20 27.092 20ZM 50.622 34L 57 34M 11 34L 17.378 34M 41.822 20.224L 46 15M 26.18 20.224L 22 15M 41.82 47.774L 46 53M 26.178 47.776L 22 53M 33 29.5C 33 32.538 35.462 35 38.5 35C 41.538 35 44 32.538 44 29.5C 44 26.462 41.538 24 38.5 24C 35.462 24 33 26.462 33 29.5M 27 40.5C 27 41.881 28.119 43 29.5 43C 30.881 43 32 41.881 32 40.5C 32 39.119 30.881 38 29.5 38C 28.119 38 27 39.119 27 40.5"></path></g></g></g><g id="g-root-stan_18kodyoz03oqu-stroke" data-item-order="0" data-item-id="stan_18kodyoz03oqu" data-item-class="Icon Stroke SceneTarget Indexed" data-item-index="2" data-renderer-id="0" transform="translate(75, 75)"><g id="stan_18kodyoz03oqu-stroke" fill="none" stroke-linecap="round" stroke-linejoin="round" stroke-miterlimit="1.5" stroke="#dd8433" stroke-width="2"><g xmlns="http://www.w3.org/2000/svg"><path d="M 41.5 24.33L 41.5 17.33C 41.5 16.225 42.395 15.33 43.5 15.33L 49.5 15.33M 47.5 11.33L 47.5 17.33M 25.5 24.33L 25.5 17.33C 25.5 16.225 26.395 15.33 27.5 15.33L 33.5 15.33M 31.5 11.33L 31.5 17.33M 18.5 56.67L 18.5 26.464C 18.55 25.241 19.577 24.288 20.8 24.33L 46.2 24.33C 47.423 24.288 48.45 25.241 48.5 26.464L 48.5 56.664M 26.882 31.48L 40.116 31.48C 40.116 31.48 41.922 31.48 41.922 33.286L 41.922 38.098C 41.922 38.098 41.922 39.904 40.116 39.904L 26.882 39.904C 26.882 39.904 25.076 39.904 25.076 38.098L 25.076 33.286C 25.076 33.286 25.076 31.48 26.882 31.48M 26.748 39.902L 40.25 39.902C 40.25 39.902 41.922 39.902 41.922 41.574L 41.922 48.66C 41.922 48.66 41.922 50.332 40.25 50.332L 26.748 50.332C 26.748 50.332 25.076 50.332 25.076 48.66L 25.076 41.574C 25.076 41.574 25.076 39.902 26.748 39.902M 26.874 50.334L 40.124 50.334C 40.124 50.334 41.922 50.334 41.922 52.132L 41.922 54.108C 41.922 54.108 41.922 55.906 40.124 55.906L 26.874 55.906C 26.874 55.906 25.076 55.906 25.076 54.108L 25.076 52.132C 25.076 52.132 25.076 50.334 26.874 50.334M 25.078 45.118L 41.924 45.118"></path></g></g></g><g id="g-root-tx_lactobac_18i6eggyztsee-stroke" data-item-order="0" data-item-id="tx_lactobac_18i6eggyztsee" data-item-class="Label Stroke SceneTarget Indexed Indexed_1 InsideFill" data-item-index="1" data-renderer-id="0" transform="translate(225, 111)"><g id="tx_lactobac_18i6eggyztsee-stroke" fill="none" stroke-linecap="round" stroke-linejoin="round" stroke-miterlimit="1.5" stroke="#484848" stroke-width="2"><g xmlns="http://www.w3.org/2000/svg"><path d="M 16.862 15.032C 16.901 15.799 16.781 17.73 16.428 19.596C 15.949 22.13 15.338 25.686 17.072 27.345C 18.806 29.005 22.257 27.653 22.96 27.111M 31.313 19.375C 27.899 19.549 25.368 25.726 27.16 27.591C 28.953 29.238 32.18 26.949 33.064 21.208C 33.537 24.975 34.694 27.59 35.054 28.053M 45.342 19.672C 44.724 19.1 41.434 19.105 39.514 21.414C 37.191 24.207 38.642 27.988 42.234 28.121C 44.613 28.209 45.511 27.078 45.82 26.741M 49.431 14.955C 49.66 16.514 49.415 17.296 48.976 20.909C 48.536 24.523 49.019 26.546 49.971 27.488C 50.924 28.43 52.537 28.217 53.074 27.657M 52.824 19.3C 52.165 19.294 50.536 19.566 49.288 20.259M 59.36 19.468C 58.514 19.693 56.14 20.951 56.298 24.041C 56.455 27.13 58.599 28.136 60.522 28.136C 62.518 28.136 65.076 26.697 64.87 23.333C 64.664 19.968 62.534 19.251 61.144 19.315C 59.498 19.389 58.395 20.554 57.942 21.311M 68.855 14.096C 69.185 16.981 67.837 19.2 69.141 26.572C 69.754 23.293 71.531 18.598 74.593 19.489C 77.458 20.323 76.575 25.002 74.949 26.387C 73.469 27.647 70.815 28.685 68.578 27.792M 84.413 19.375C 80.999 19.549 78.468 25.726 80.26 27.591C 82.053 29.238 85.28 26.949 86.164 21.208C 86.637 24.975 87.794 27.59 88.154 28.053M 98.442 19.672C 97.824 19.1 94.534 19.105 92.614 21.414C 90.291 24.207 91.742 27.988 95.334 28.121C 97.713 28.209 98.611 27.078 98.92 26.741M 103.031 14.847C 104.339 15.612 102.676 16.866 102.851 14.941M 103.205 19.301C 103.15 21.527 103.073 26.583 103.205 28.136M 107.901 14.008C 107.492 17.098 107.207 23.338 107.486 25.59C 107.845 28.491 109.184 28.35 109.781 27.864M 112.951 14.008C 112.542 17.098 112.257 23.338 112.536 25.59C 112.895 28.491 114.234 28.35 114.831 27.864M 118.291 19.475C 118.018 20.342 117.629 22.125 117.745 23.654C 117.891 25.558 119.237 28.639 122.457 28.066C 125.572 27.512 125.714 22.23 125.313 19.475M 135.281 19.411C 132.794 18.954 129.04 20.59 129.676 22.121C 130.588 24.313 136.974 23.498 136.164 26.083C 135.699 27.569 133.921 28.101 132.247 28.131C 131.084 28.152 130.257 28.131 129.388 27.615"></path></g></g></g><g id="g-root-stom_1lw4wc0z03n5x-stroke" data-item-order="0" data-item-id="stom_1lw4wc0z03n5x" data-item-class="Icon Stroke SceneTarget Indexed" data-item-index="3" data-renderer-id="0" transform="translate(459, 111)"><g id="stom_1lw4wc0z03n5x-stroke" fill="none" stroke-linecap="round" stroke-linejoin="round" stroke-miterlimit="1.5" stroke="#e15e5a" stroke-width="2"><g xmlns="http://www.w3.org/2000/svg"><path d="M 19 57L 19 54C 19.002 52.595 19.746 51.295 20.956 50.58C 24.801 54.069 29.808 56.001 35 56C 46.6 56 57 46.6 57 35C 57 29.828 57 15 37 15C 34.791 15 33 13.209 33 11M 25 11L 25 13C 25 17.418 28.582 21 33 21L 34.91 21C 37.026 43.34 11 40.13 11 52L 11 57M 34.912 21L 37 21"></path></g></g></g><g id="g-root-tx_bifidoba_1cxdfhsyzturx-stroke" data-item-order="0" data-item-id="tx_bifidoba_1cxdfhsyzturx" data-item-class="Label Stroke SceneTarget Indexed InsideFill" data-item-index="2" data-renderer-id="0" transform="translate(21, 147)"><g id="tx_bifidoba_1cxdfhsyzturx-stroke" fill="none" stroke-linecap="round" stroke-linejoin="round" stroke-miterlimit="1.5" stroke="#484848" stroke-width="2"><g xmlns="http://www.w3.org/2000/svg"><path d="M 15.617 15.064C 19.743 14.726 24.765 15.513 24.765 17.874C 24.765 20.122 18.987 21.617 17.165 21.965C 20.902 21.965 24.581 23.216 24.114 25.112C 23.647 27.008 20.534 28.685 18.712 28.259C 16.89 27.834 16.277 24.033 16.277 21.965C 16.277 20.323 16.649 17.581 16.947 16.317M 29.141 14.847C 30.449 15.612 28.786 16.866 28.961 14.941M 29.315 19.301C 29.26 21.527 29.183 26.583 29.315 28.136M 34.439 28.129C 34.439 25.986 34.304 25.016 34.15 22.823C 33.923 19.617 33.768 14.643 37.996 13.962M 37.368 19.362C 36.702 19.33 35.279 19.425 34.539 19.853M 41.311 14.847C 42.619 15.612 40.956 16.866 41.131 14.941M 41.485 19.301C 41.43 21.527 41.353 26.583 41.485 28.136M 51.757 20.309C 51.359 19.935 50.36 19.311 48.98 19.406C 47.254 19.526 45.715 20.679 45.715 23.113C 45.715 25.547 47.119 28.127 49.062 28.127C 51.004 28.127 52.478 25.277 53.086 22.614C 53.573 20.484 53.664 15.957 53.648 13.96M 54.309 28.127C 52.954 26.46 53.201 23.61 53.328 21.776C 53.455 19.942 53.517 18.937 53.517 18.937M 60.8 19.468C 59.954 19.693 57.58 20.951 57.738 24.041C 57.895 27.13 60.039 28.136 61.962 28.136C 63.958 28.136 66.516 26.697 66.31 23.333C 66.104 19.968 63.974 19.251 62.584 19.315C 60.938 19.389 59.835 20.554 59.382 21.311M 70.295 14.096C 70.625 16.981 69.277 19.2 70.581 26.572C 71.194 23.293 72.971 18.598 76.033 19.489C 78.898 20.323 78.015 25.002 76.389 26.387C 74.909 27.647 72.255 28.685 70.018 27.792M 85.853 19.375C 82.439 19.549 79.908 25.726 81.7 27.591C 83.493 29.238 86.72 26.949 87.604 21.208C 88.077 24.975 89.234 27.59 89.594 28.053M 99.882 19.672C 99.264 19.1 95.974 19.105 94.054 21.414C 91.731 24.207 93.182 27.988 96.774 28.121C 99.153 28.209 100.051 27.078 100.36 26.741M 103.971 14.955C 104.2 16.514 103.955 17.296 103.516 20.909C 103.076 24.523 103.559 26.546 104.511 27.488C 105.464 28.43 107.077 28.217 107.614 27.657M 107.364 19.3C 106.705 19.294 105.076 19.566 103.828 20.259M 112.154 24.307C 113.482 24.583 116.527 24.463 117.596 23.011C 118.933 21.196 117.643 18.817 114.622 19.508C 111.269 20.276 110.004 24.39 111.269 26.534C 112.292 28.267 115.015 29.038 118.436 26.534M 121.47 19.413C 121.752 20.567 122.343 24.098 122.251 28.136C 122.251 23.378 123.844 19.844 126.29 19.341M 129.591 14.847C 130.899 15.612 129.236 16.866 129.411 14.941M 129.765 19.301C 129.71 21.527 129.633 26.583 129.765 28.136M 134.751 19.475C 134.478 20.342 134.089 22.125 134.205 23.654C 134.351 25.558 135.697 28.639 138.917 28.066C 142.032 27.512 142.174 22.23 141.773 19.475M 160.441 28.136C 159.943 27.708 159.652 25.757 159.652 23.936C 159.652 22.314 159.962 19.203 158.357 19.093C 156.36 18.955 154.181 26.052 153.437 28.136C 151.709 26.448 152.353 19.121 150.158 19.362C 148.439 19.55 146.022 25.23 146.259 28.136C 146.006 27.22 146.016 25.117 146.259 23.634C 146.512 22.09 146.174 20.82 146.006 20.202"></path></g></g></g><g id="g-root-tx_digestiv_1lt0fqoyzttz8-stroke" data-item-order="0" data-item-id="tx_digestiv_1lt0fqoyzttz8" data-item-class="Label Stroke SceneTarget Indexed InsideFill" data-item-index="3" data-renderer-id="0" transform="translate(435, 183)"><g id="tx_digestiv_1lt0fqoyzttz8-stroke" fill="none" stroke-linecap="round" stroke-linejoin="round" stroke-miterlimit="1.5" stroke="#484848" stroke-width="2"><g xmlns="http://www.w3.org/2000/svg"><path d="M 16.342 16.219C 17.247 15.767 19.895 14.886 22.653 15.081C 26.101 15.326 27.46 17.904 26.815 21.267C 26.107 24.955 23.153 26.912 21.717 27.535C 20.28 28.157 19.006 28.138 18.797 28.049C 18.588 27.96 17.798 27.377 17.798 25.576C 17.798 23.775 17.998 20.147 18.338 16.945M 31.291 14.847C 32.599 15.612 30.936 16.866 31.111 14.941M 31.465 19.301C 31.41 21.527 31.333 26.583 31.465 28.136M 42.058 20.579C 41.783 20.161 40.969 19.104 39.246 19.412C 36.622 19.882 35.5 23.142 36.175 24.717C 36.825 26.233 38.482 26.796 40.58 25.798C 42.356 24.954 43.362 22.028 43.154 20.082C 43.334 22.778 43.403 24.142 43.777 26.221C 44.177 28.444 44.625 31.26 43.154 32.559C 41.48 34.039 37.631 33.013 37.334 29.948M 48.954 24.307C 50.282 24.583 53.327 24.463 54.396 23.011C 55.733 21.196 54.443 18.817 51.422 19.508C 48.069 20.276 46.804 24.39 48.069 26.534C 49.092 28.267 51.815 29.038 55.236 26.534M 64.731 19.411C 62.244 18.954 58.49 20.59 59.126 22.121C 60.038 24.313 66.424 23.498 65.614 26.083C 65.149 27.569 63.37 28.101 61.697 28.131C 60.534 28.152 59.707 28.131 58.838 27.615M 69.591 14.955C 69.82 16.514 69.575 17.296 69.136 20.909C 68.696 24.523 69.179 26.546 70.131 27.488C 71.084 28.43 72.697 28.217 73.234 27.657M 72.984 19.3C 72.325 19.294 70.696 19.566 69.448 20.259M 76.971 14.847C 78.279 15.612 76.616 16.866 76.791 14.941M 77.145 19.301C 77.09 21.527 77.013 26.583 77.145 28.136M 81.066 19.308C 81.319 19.691 81.87 20.77 82.383 22.296C 83.024 24.203 83.581 26.938 84.678 28.136C 85.32 26.313 86.227 23.63 86.923 22.127C 87.619 20.624 88.183 19.612 88.358 19.393M 93.014 24.307C 94.342 24.583 97.387 24.463 98.456 23.011C 99.793 21.196 98.503 18.817 95.482 19.508C 92.129 20.276 90.864 24.39 92.129 26.534C 93.152 28.267 95.875 29.038 99.296 26.534M 25.812 39.421C 24.506 39.416 21.083 39.546 18.213 40.047M 19.723 40.779C 18.984 42.077 17.471 45.413 18.087 48.625C 18.858 52.639 23.058 53.143 26 51.403M 18.213 46.717C 19.293 46.457 22.124 45.996 24.427 45.862M 30.303 43.359C 30.334 44.082 30.184 45.88 29.922 47.286C 29.596 49.045 29.904 51.333 30.448 52.136C 30.448 50.924 33.225 43.359 35.584 43.359C 37.87 43.359 35.729 50.343 37.87 52.136M 41.337 44.045C 42.973 43.506 46.503 42.693 47.643 44.305C 48.891 46.07 43.352 49.593 41.756 50.172C 41.179 50.381 40.871 51.606 42.017 51.99C 43.632 52.53 46.755 51.667 48.207 51.99M 51.748 43.325C 51.595 44.303 51.461 46.518 51.748 48.354C 52.108 50.648 53.644 51.826 55.241 50.609C 56.837 49.391 57.416 45.26 57.516 43.325C 57.256 47.136 57.655 49.232 57.855 50.708C 58.054 52.185 58.114 55.019 57.136 56.256C 56.159 57.493 53.544 57.613 52.187 56.436M 76.331 52.136C 75.833 51.708 75.543 49.757 75.543 47.936C 75.543 46.314 75.852 43.203 74.247 43.093C 72.25 42.955 70.071 50.052 69.327 52.136C 67.599 50.448 68.243 43.121 66.048 43.362C 64.329 43.55 61.912 49.23 62.149 52.136C 61.896 51.22 61.906 49.117 62.149 47.634C 62.402 46.09 62.064 44.82 61.896 44.202M 81.454 48.307C 82.782 48.583 85.827 48.463 86.896 47.011C 88.233 45.196 86.943 42.817 83.922 43.508C 80.569 44.276 79.304 48.39 80.569 50.534C 81.592 52.267 84.315 53.038 87.736 50.534M 97.231 43.411C 94.744 42.954 90.99 44.59 91.626 46.121C 92.538 48.313 98.924 47.498 98.114 50.083C 97.649 51.569 95.87 52.101 94.197 52.131C 93.034 52.152 92.207 52.131 91.338 51.615"></path></g></g></g></g></svg>